# ProBuilder 4.5.2
# https://unity3d.com/unity/features/worldbuilding/probuilder
# 21/08/2021 13:37:47

mtllib ./Boid.mtl
o Boid

g Boid
v -1 0 -2
v -0.5 0.5 0
v -1 1 -2
v 0 0 -2
v 0 1 -2

vt -2.182821 0
vt -0.1212678 0.5
vt -2.182821 1
vt 1 0
vt 0 0
vt 1 1
vt 0 1
vt 1.940285 0
vt 1.940285 1
vt 0.5 -0.1212678
vt 0 -2.182821
vt 1 -2.182821
vt 0 -1.940285
vt -1 -1.940285
vt -0.5 0.1212678

vn -0.9701425 0 0.2425356
vn 0 0 -1
vn 0.9701425 0 0.2425356
vn 0 0.9701425 0.2425356
vn 0 -0.9701425 0.2425356

usemtl New_Material
f 2/2/1 3/3/1 1/1/1
f 5/9/3 2/2/3 4/8/3
f 5/11/4 3/12/4 2/10/4
f 2/15/5 1/14/5 4/13/5
f 5/7/2 4/5/2 1/4/2
f 1/4/2 3/6/2 5/7/2

